<svg xmlns="http://www.w3.org/2000/svg" xmlns:svgjs="http://svgjs.com/svgjs" xmlns:xlink="http://www.w3.org/1999/xlink" viewBox="15.34 80.38 238.73 102.18"><svg xmlns="http://www.w3.org/2000/svg" width="288" height="288" viewBox="0 0 900 600"><path fill="none" stroke="#91cffa" d="M72.5,304.9c5.3-8.1,12-15.4,20.1-20.7      c3.9-2.6,8.2-4.7,12.7-6c3.9-1.2,8.1-1.7,12.2-1.7c3.8,0,7.6,0.5,11.4,1.3c2.8,0.6,5.7,1.5,8,3.1c2,1.3,3.7,3.2,4.7,5.4       c-11,7-23.1,12.2-35.8,15.6C95,304.8,83.7,306.3,72.5,304.9z" class="colorStroke000 svgStroke"/><path fill="none" stroke="#91cffa" d="M71.8 305.3c8.6-13.3 21.5-25 36.1-28.2 6.2-1.4 12.7-1.2 19.4 0 4.8.9 9.7 2.4 12.8 5.8.9 1 1.7 2.3 2.3 3.6-9.9 6.4-20.8 11.2-32.3 14.7-10.9 3.3-22.3 5.4-33.5 4.6C74.9 305.7 73.4 305.5 71.8 305.3zM764.5 260.6c-2.1-.2-4.3-.4-6.3.1-1.1.3-2.1.8-3.2 1.1-1.9.7-3.9.9-5.9.9-1.6 0-3.3-.3-4.9-.3-1.6 0-3.2.1-4.9.3-1.3.1-2.6.2-3.8.1-1.3-.1-2.6-.3-3.8-.7-3.8-1.1-7.1-3.5-9.9-6.3-.6-.6-.7-1.1 0-1.7 2.7-2.7 4.9-5.8 7.7-8.3 2.6-2.4 5.8-4.3 9.2-5.3 2.9-.6 5.8-1.1 8.8-.9 2.5.2 5.1.8 7.3 2.1 2.6 1.4 4.8 3.5 6.5 5.9 2.4 3.4 3.8 7.5 4.6 11.6C766 260.2 765.6 260.7 764.5 260.6z" class="colorStroke000 svgStroke"/><path fill="none" stroke="#91cffa" d="M764.5 261c-2.4-.3-4.9-.2-7.2.4-1.3.4-2.6 1-3.9 1.3-2.8.7-5.8.2-8.7.1-4.1-.1-8.2.8-12 0-4.1-.8-8-3.5-11.1-6.7-.9-.8-.9-1.5-.1-2.3.6-.6 1.2-1.1 1.7-1.7 2.4-2.5 4.4-5.4 7.1-7.6 2.4-2 5.4-3.4 8.3-4.5 2.4-.7 5-1 7.6-.9 2.9 0 5.9.5 8.4 1.8 6.4 3.1 10.3 10.9 11.7 18.2C766.5 260.5 765.9 261.2 764.5 261zM694 185.4c0 .2 0 .4.1.6.3 1.8 1.3 3.4 2.4 4.8 1.8 2.3 4.1 4.1 6.4 5.9 3.9 2.9 7.9 5.6 11.9 8.4 8.8 6.2 17.3 13 25.5 20.1.1.1.2.1.3.1 1.5-.1 2.8-.3 4.1-.9 1-.4 1.7-1 2.5-1.7.1-.1.2-.3 0-.4-3.4-5-7.2-9.8-11.4-14.2-10.1-10.8-22.4-19.6-35.6-26.1-.1 0-.1 0-.2 0-2.1.5-4.2 1.5-5.6 3.1-.1.1-.1.2-.2.2C694 185.2 694 185.3 694 185.4zM265.2 279.7c3.2 0 6.4 0 9.6 0 1.6 0 2.2-.6 2.2-2.2 0-1.6-.6-2.2-2.2-2.2-3.2 0-6.4 0-9.6 0-1.6 0-2.2.6-2.2 2.2C263.1 279 263.7 279.7 265.2 279.7zM461.8 258.4c1.2.6 1.9.4 2.5-.8.6-1.2.4-1.9-.8-2.5-1.2-.6-1.9-.4-2.5.8C460.4 257 460.7 257.8 461.8 258.4zM654.2 348.7c2.3-.5 3-1.6 2.5-3.9-.5-2.3-1.6-3-3.9-2.5-2.3.5-3 1.6-2.5 3.9C650.8 348.5 651.9 349.2 654.2 348.7zM646.5 353.3c.2-2.3-.6-3.4-2.9-3.6-2.3-.2-3.4.6-3.6 2.9-.2 2.3.6 3.4 2.9 3.6C645.2 356.5 646.3 355.6 646.5 353.3zM648.5 362c-2.1-.9-3.4-.4-4.3 1.7-.9 2.1-.4 3.4 1.7 4.3 2.1.9 3.4.4 4.3-1.7C651.1 364.2 650.6 362.9 648.5 362zM657.4 362.8c-1.5 1.7-1.5 3.1.3 4.6 1.7 1.5 3.1 1.5 4.6-.3 1.5-1.7 1.5-3.1-.3-4.6C660.2 361 658.9 361.1 657.4 362.8zM660.9 354.6c1.2 2 2.5 2.3 4.5 1.2 2-1.2 2.3-2.5 1.2-4.5-1.2-2-2.5-2.3-4.5-1.2C660.1 351.3 659.7 352.6 660.9 354.6zM640.5 365c-1.7-2.5-2.5-5-2.6-8 0-.9-.4-1.3-1.3-1.5-5.6-1.2-11.3-2.3-16.9-3.5-1.2-.3-1.8.2-1.9 1.4-.9 10.5 1.6 18.2 8.5 26.2.8.9 1.6 1 2.4 0 3.9-4.2 7.8-8.5 11.6-12.7C641 366.3 641 365.7 640.5 365zM657.7 371.4c-2.9.8-5.6.7-8.5-.1-.9-.2-1.4 0-1.8.8-2.8 5-5.7 10-8.5 15-.6 1.1-.4 1.8.8 2.3 9.7 4.1 17.8 4.1 27.6.1 1.2-.5 1.4-1.2.8-2.3-2.8-5-5.7-10-8.5-15C659.1 371.4 658.6 371.1 657.7 371.4zM669.2 356.9c-.2 3-1.1 5.5-2.7 8-.5.8-.5 1.3.1 2 3.9 4.2 7.8 8.5 11.6 12.7.8.9 1.6.9 2.4 0 6.9-8 9.4-15.7 8.5-26.2-.1-1.2-.7-1.7-1.9-1.4-5.6 1.1-11.2 2.3-16.8 3.4C669.6 355.6 669.2 356 669.2 356.9zM658.9 341.7c2.8 1 5 2.6 6.9 4.9.6.7 1.1.8 1.9.5 5.2-2.4 10.4-4.8 15.7-7.1 1.1-.5 1.4-1.2.7-2.3-5.5-9-12-13.8-22.3-16.2-1.2-.3-1.8.1-2 1.4-.6 5.7-1.3 11.4-1.9 17.1C657.8 340.9 658 341.4 658.9 341.7zM641.2 346.6c1.9-2.4 4-3.9 6.8-5 .9-.3 1.1-.8 1-1.7-.6-5.7-1.3-11.4-1.9-17.1-.1-1.2-.8-1.7-2-1.4-10.3 2.4-16.8 7.2-22.3 16.2-.6 1.1-.4 1.8.7 2.3 5.2 2.4 10.5 4.8 15.7 7.1C640.2 347.5 640.7 347.3 641.2 346.6zM200.2 346.6c1.9-2.4 4-3.9 6.8-5 .9-.3 1.1-.8 1-1.7-.6-5.7-1.3-11.4-1.9-17.1-.1-1.2-.7-1.7-2-1.4-10.3 2.4-16.8 7.2-22.3 16.2-.6 1.1-.4 1.8.7 2.3 5.2 2.4 10.5 4.8 15.7 7.1C199.1 347.5 199.7 347.3 200.2 346.6zM217.9 341.7c2.8 1 5 2.6 6.9 4.9.6.7 1.1.8 1.9.5 5.2-2.4 10.5-4.8 15.7-7.1 1.1-.5 1.4-1.2.7-2.3-5.5-9-12-13.8-22.3-16.2-1.2-.3-1.8.1-2 1.4-.6 5.7-1.3 11.4-1.9 17.1C216.7 340.9 217 341.4 217.9 341.7zM228.2 356.9c-.2 3-1.1 5.5-2.7 8-.5.8-.5 1.3.1 2 3.9 4.2 7.8 8.5 11.6 12.7.8.9 1.6.9 2.4 0 6.9-8 9.4-15.7 8.5-26.2-.1-1.2-.7-1.7-1.9-1.4-5.6 1.1-11.2 2.3-16.8 3.4C228.6 355.6 228.2 356 228.2 356.9zM216.7 371.4c-2.9.8-5.6.7-8.5-.1-.9-.2-1.4 0-1.8.8-2.8 5-5.7 10-8.5 15-.6 1.1-.4 1.8.8 2.3 9.7 4.1 17.8 4.1 27.6.1 1.2-.5 1.4-1.2.8-2.3-2.8-5-5.7-10-8.5-15C218.1 371.4 217.6 371.1 216.7 371.4zM199.5 365c-1.7-2.5-2.5-5-2.6-8 0-.9-.4-1.3-1.3-1.5-5.6-1.2-11.3-2.3-16.9-3.5-1.2-.3-1.8.2-1.9 1.4-.9 10.5 1.6 18.2 8.5 26.2.8.9 1.6 1 2.4 0 3.9-4.2 7.8-8.5 11.6-12.7C200 366.3 200 365.7 199.5 365zM219.9 354.6c1.2 2 2.5 2.3 4.5 1.2 2-1.2 2.3-2.5 1.2-4.5-1.2-2-2.5-2.3-4.5-1.2C219 351.3 218.7 352.6 219.9 354.6zM216.3 362.8c-1.5 1.7-1.5 3.1.3 4.6 1.7 1.5 3.1 1.5 4.6-.3 1.5-1.7 1.5-3.1-.3-4.6C219.2 361 217.9 361.1 216.3 362.8zM207.5 362c-2.1-.9-3.4-.4-4.3 1.7-.9 2.1-.4 3.4 1.7 4.3 2.1.9 3.4.4 4.3-1.7C210.1 364.2 209.6 362.9 207.5 362zM205.5 353.3c.2-2.3-.6-3.4-2.9-3.6-2.3-.2-3.4.6-3.6 2.9-.2 2.3.6 3.4 2.9 3.6C204.2 356.5 205.3 355.6 205.5 353.3zM213.2 348.7c2.3-.5 3-1.6 2.5-3.9-.5-2.3-1.6-3-3.9-2.5-2.3.5-3 1.6-2.5 3.9C209.8 348.5 210.9 349.2 213.2 348.7z" class="colorStroke000 svgStroke"/><path fill="none" stroke="#91cffa" d="M692.5,375.2c10.4-21.6,1.4-47.5-20.1-57.9       c-21.6-10.4-47.5-1.4-57.9,20.1c-10.4,21.6-1.4,47.5,20.1,57.9C656.1,405.8,682.1,396.8,692.5,375.2z" class="colorStroke000 svgStroke"/><circle cx="654.5" cy="355.6" r="55.6" fill="none" stroke="#91cffa" class="colorStroke000 svgStroke" transform="rotate(-81.414 654.537 355.643)"/><circle cx="213.5" cy="355.6" r="55.6" fill="none" stroke="#91cffa" class="colorStroke000 svgStroke" transform="rotate(-81.414 213.528 355.645)"/><path fill="none" stroke="#91cffa" d="M251.5 375.2c10.4-21.6 1.4-47.5-20.1-57.9-21.6-10.4-47.5-1.4-57.9 20.1-10.4 21.6-1.4 47.5 20.1 57.9C215.1 405.8 241.1 396.8 251.5 375.2zM614.4 188.5c8.6 2 17 4.3 25.2 7.5 3.8 1.5 7.6 3.1 11.3 4.9-1.2 2.4-2.7 4.7-4.5 6.7-3.1 3.5-7.2 6.3-11.3 8.8-.9.6-1.8 1.1-2.8 1.6-3.5 0-7 .1-10.4.2C619.4 208.2 616.9 198.3 614.4 188.5zM92.4 350.9c-1.5-2.1-2.7-4.5-3.2-7.1-.5-2.5-.3-5 .4-7.4 1.3.2 2.6.7 3.5 1.5 1.4 1.2 1.9 3.2 2.6 5.2.6 1.5 1.3 3 .9 4.2C96.2 349 94.2 350.3 92.4 350.9zM760.1 364.8c2.4 0 4.7 0 7.1 0 1-.5 1.9-1.1 2.9-1.6.6 0 1.2-.1 1.9-.3 1-.3 2.3-.9 2.3-1.6 0-.6-.8-1.3-1.5-1.7-2.1 0-4.2 0-6.3 0-2 .4-4.1 1.5-5.4 3.2C760.7 363.4 760.4 364.1 760.1 364.8zM320.5 241.8c.2-2.6.7-5.1 1.6-7.6 1.5-4.2 4.1-8.3 7.8-10.3 3.3-1.8 7.4-2 11.1-1.4.1 0 .1 0 .1.1 1.5 1.1 2.8 2.4 3.8 4 1.4 2.4 1.9 5.4 1.7 8.1.4 1 .5 2.3.2 3.3-.4 1.2-1.5 2-2.6 2.8-1.5 1-3 1.9-4.5 2.4-2.2.8-4.5.8-7.5.3-.9-.2-1.9-.4-2.3.1-.3.4-.4 1.1-.3 1.6C326.7 244 323.6 242.9 320.5 241.8z" class="colorStroke000 svgStroke"/><line x1="160.7" x2="141.9" y1="373.1" y2="373.1" fill="none" stroke="#91cffa" class="colorStroke000 svgStroke"/><path fill="none" stroke="#91cffa" d="M773.2 273.9c-4.6 1.3-8.5 2.8-11.6 4.5M760 238.6c7.7 9.4 10.6 19.4 10.3 22.3M668.9 167.1c-.1 1.4 0 2.9.2 4.3.4 2.4 1.2 4.8 2.1 7.1 1.1 2.8 2.1 5.6 3.8 8 2.1 3.1 5.2 5.6 8.3 8 4.8 3.9 9.5 7.7 14.5 11.2 6.2 4.3 12.9 8.1 19 12.6 5.4 4 10.3 8.7 15.5 13 1.6 1.3 3.3 2.6 5 3.9M694 184.5c0-.6.1-1.1.2-1.7.3-1.1.9-2.2 1.5-3.2 1-1.6 2.3-3 3.6-4.4 1.6-1.6 3.4-3 5.3-4.1M757.6 223.1c-.1-.5-.3-.6-.7-.6-.7 0-1.4 0-2.1 0-.5 0-.7.2-.7.6M478.1 171c-11.5.5-22.9 1.5-34.3 3-25.9 3.4-51.4 9.4-76.3 17.3-18.1 5.8-35.9 12.6-53.1 20.7-20.1 9.5-39.4 20.9-57.8 33.5M482.5 235.9c1.2-22.1 2.3-44.2 3.5-66.3 0-.2-.1-.3-.3-.3-2.3 0-4.6.1-7 .1-.2 0-.3.1-.3.3-4.7 22.4-9.5 44.9-14.2 67.3" class="colorStroke000 svgStroke"/><path fill="none" stroke="#91cffa" d="M477.2,236.2c-3,7.4-5.5,15-6.9,22.8       c-2.5,13.3-2,27-1.9,40.6c0.2,26.3-0.8,52.3,0,78.4" class="colorStroke000 svgStroke"/><line x1="611.2" x2="621.7" y1="184.4" y2="226.2" fill="none" stroke="#91cffa" class="colorStroke000 svgStroke"/><line x1="602.1" x2="607.6" y1="182.7" y2="228.8" fill="none" stroke="#91cffa" class="colorStroke000 svgStroke"/><path fill="none" stroke="#91cffa" d="M653.3,200.9c-4.4-2.1-8.8-4.1-13.3-5.8       c-9.1-3.5-18.6-6.1-28.2-8.2" class="colorStroke000 svgStroke"/><line x1="316.4" x2="312.4" y1="216.3" y2="243.1" fill="none" stroke="#91cffa" class="colorStroke000 svgStroke"/><line x1="309.4" x2="304.6" y1="219.8" y2="243.5" fill="none" stroke="#91cffa" class="colorStroke000 svgStroke"/><path fill="none" stroke="#91cffa" d="M781.9 321.2c-21 .6-29.6-7.3-37.4-12-7.8-4.7-14.7-6.3-18.2-6.5-3.4-.3-3.3.7.7 9.7M721.7 370.2c10.4-44.7-24.6-87-70.4-85.2-45.8 1.8-77.4 46.7-63.6 90.4M459 254.5c-2.9-3.2-9.2-3.4-12.8-2.9-3.4.5-10.7 2.3-10.3 7.2.4 5 7.9 5.5 11.3 5.4 3.6-.1 9.8-1.4 12.2-5" class="colorStroke000 svgStroke"/><path fill="none" stroke="#91cffa" d="M436 259.3c.5.4.9.5 1.5.5 8.5-.3 17-.5 25.5-.8 1.7 0 2.3-.8 2.3-2.4-.1-1.7-.8-2.3-2.4-2.3-8.4.3-16.8.5-25.2.8M365.3 239.3c-.9-1.6-7.5-16-10.6-16-5.2.1-.9 5.1.6 7.8 1.6 2.8 3.3 5.6 4.9 8.5M633.9 163.8c-.1-1.1.2-2.4 0-3.5-.2-1.2-.7-2.2-1.4-2-.7.2-1.5 1.7-2.4 2.3-.9.6-1.9.2-2.7-.3-.7-.5-1.2-1.2-2.2-1.4-1-.2-2.5 0-3.4.6-.9.6-1.3 1.5-1.1 2.8M673.5 374.4c5.8-6.4 7.8-12.5 6.8-21M675 376.1c6.5-7 8.6-13.7 7.5-23.2M641.3 382.9c8.7 4 15.7 4 24.4 0M642.4 380.9c7.8 3.5 14.2 3.5 22.1 0M626.7 353.4c-.9 8.5 1.1 14.6 6.8 21M624.4 352.9c-1.1 9.5 1.1 16.2 7.5 23.2M679 341.9c-4.7-8.3-10.4-12.5-19.7-14.3M647.7 327.6c-9.4 1.9-15.1 6-19.8 14.3M676.9 342.9c-4.3-7.5-9.5-11.2-17.9-13M648 329.9c-8.4 1.8-13.6 5.5-17.9 13M652.1 348.5c-2.7.5-4.3 1.6-5.6 4.1M645.7 355.2c-.4 2.7.2 4.6 2.1 6.6M650 363.4c2.5 1.2 4.5 1.2 6.9 0M659.1 361.8c1.9-2 2.5-3.9 2.1-6.6M660.5 352.6c-1.3-2.4-2.9-3.6-5.6-4.1M346.9 235.2c-6.5.1-12.7.1-18.7.1M135.7 361.2c-1-3.9-3.6-7.5-5.7-9.6-2.2-2.1-4-2.7-5.8-3-1.8-.2-3.7 0-5.5.7-1.8.7-3.4 2.1-5.3 3.4-1.9 1.4-4.2 2.8-6.8 3.7-2.7 1-5.8 1.5-31.3 1.5M106.3 334.7c-.1 5.7-1.6 8.7-3.8 11.3-2.2 2.6-5.1 4.9-8.4 6.6-3.3 1.7-6.9 2.7-27.2 2.5M85.6 316.5c9.2 0 10.6-1.7 11.1-3.5.6-1.8.4-3.5-2-3.5M746.1 239.2c-1.5-1.7-3-3.4-4.7-5-2.4-2.2-5-4.3-7.8-6.1M49.8 319.4c5.7 1.6 11.6 2.1 19.7 2.1M219.4 352.6c-1.3-2.4-2.9-3.6-5.6-4.1M218.1 361.8c1.9-2 2.5-3.9 2.1-6.6M209 363.4c2.5 1.2 4.5 1.2 6.9 0M204.7 355.2c-.4 2.7.2 4.6 2.1 6.6M211.1 348.5c-2.7.5-4.3 1.6-5.6 4.1M207 329.9c-8.4 1.8-13.6 5.5-17.9 13M235.9 342.9c-4.3-7.5-9.5-11.2-17.9-13M206.7 327.6c-9.4 1.9-15.1 6-19.8 14.3M238 341.9c-4.7-8.3-10.4-12.5-19.7-14.3M183.4 352.9c-1.1 9.5 1.1 16.2 7.5 23.2M185.7 353.4c-.9 8.5 1.1 14.6 6.8 21M201.4 380.9c7.8 3.5 14.2 3.5 22.1 0M200.3 382.9c8.7 4 15.7 4 24.4 0M234 376.1c6.5-7 8.6-13.7 7.5-23.2M232.4 374.4c5.8-6.4 7.8-12.5 6.8-21M700.1 181.3c-2.3.4-4.6 1.5-6.1 3.3-.8.9-1.4 2-1.8 3.1M781.2 292.4c-1.7.8-3.7 1.4-5.5 1.3-3.4-.2-6.4-2.6-8.7-5.3-2.2-2.7-3.6-5.8-4.9-8.9-2.4-5.7-4.8-11.4-6.4-17.4" class="colorStroke000 svgStroke"/><path fill="none" stroke="#91cffa" d="M745.7 262.9c-1.1 4.3-1.6 9-.7 13.4 2.2 10.3 12 19.3 22.4 21.6 5.8 1.3 11.8.4 17.3-1.4M738.6 240.1c-.6-3-1.5-6-3-8.7-1.2-2.2-2.7-4.3-4-6.5-1.1-2-2.1-4.2-2.9-6.3M669.6 179.7c-10.1-1.6-20.2-2.8-30.3-4-10.6-1.3-21.3-2.5-31.9-3.6-34-3.4-68.2-5.1-102.4-5-14.1 0-28.1.4-42.1 1.2-7.8.5-15.6 1.1-23.3 2.1-14.9 1.9-29.5 5.2-44.1 8.8-16.1 4-32 8.4-47.5 14.2-14.2 5.3-28 11.8-41.7 18.5-7.6 3.7-15.1 7.6-22.7 11.3-6.8 3.3-13.6 6.6-20.4 9.8-4.6 2.2-9.2 4.3-13.9 6-2.9 1.1-5.8 1.9-8.9 2.6-2.6.6-5 1.3-7.5 2-16.9 4.6-34.4 6.6-51.8 9.7-19.6 3.5-39.1 8.3-57.4 16-5.6 2.4-11 5-16.4 7.8M792.4 309.1c-8.6 0-9.1.9-9.5 4.5-.4 3.6-.9 10-4.6 24.1-12.3 0-25 3.4-29.8 11.2" class="colorStroke000 svgStroke"/><path fill="none" stroke="#91cffa" d="M236.6 238.2c1.5.9 3 2.2 3.9 3.7 1.7 2.8 1.6 6.7.7 9.9-8.2.1-16.3.4-24.5 1.1-8.2.7-16.4 1.6-24.5 2.9M573.9 343.5c2.8-37.4 30.9-68 68-74 37-6 73.4 14.2 87.8 48.8 4.1 12.6 2.7 16.9 1.3 19.6-1.4 2.6-2.9 3.6-8.5 4.6" class="colorStroke000 svgStroke"/><path fill="none" stroke="#91cffa" d="M717.7 370.2c0-4.8 0-9.7 0-14.5 0-35-28.4-63.5-63.5-63.5-35 0-63.5 28.4-63.5 63.5 0 6.6 0 13.1 0 19.7M477.6 173.4c-19.3 1-38.5 3.5-57.5 7.2-24.7 4.7-49.1 11.3-72.6 20.2-31.5 11.9-61.7 27.9-89.5 46.9 20.1-1 40.2-2 60.4-3M721.9 256.6c-4 3.9-7.7 8-11.2 12.4-3 3.8-5.9 7.7-8.5 11.8-35.7-24.6-84.1-17.8-111.7 15.6-138.1-17.4-293-29.3-363.3-30.7M602.6 375.4c-4.9 0-9.9 0-14.8 0-70.9.9-74.3 1.7-84.7 2.2-10.6.5-28.6.6-51.1.4-22.5-.1-49.5-.4-74.1-.6-24.7-.2-47-.3-101.8-1.2M602.4 185c-10.4-1.9-20.9-3.3-31.4-4.6-18.1-2.2-36.3-4-54.5-4.7-9.6-.4-19.3-.5-28.9-.2-1 19.5-2 39-3.1 58.5 40.9-2.3 81.9-4.6 122.8-7M631.7 158.9c13.5-17.8 26.9-35.7 40.3-53.5-1-1.7.5-3.4 2.2-2.3 1.7 1.2.6 3.2-1.4 2.8-13 17.9-26 35.8-38.9 53.8M68.1 331.1c-2.1 5.7-4.3 11.4-6.4 17.1-2.3 1.7-2 4.1-2 6.6-2 2.8-4.1 5.7-6.1 8.5" class="colorStroke000 svgStroke"/><path fill="none" stroke="#91cffa" d="M70.6 309.8c3.6 6.4 8.4 13.7 14.4 21.7-10.8-.3-21.7-.6-32.5-.8-1 0-1.9 0-2.9 0M146.5 334.6c-5.8.1-11.6.3-17.4.4-6.3-3.9-13.1-5.8-25.7-2.2M207.8 242.7c10.8 0 11.9-2.2 12.7-4.4 5.2 0 10.5 0 15.7 0 10-2.9 13.2-3.9 24.4-9.2 11.2-5.3 30.5-14.9 45.8-22.4 15.3-7.5 26.6-13 41.5-18.3 14.9-5.3 33.3-10.6 49.4-14.6 16.1-4 29.8-6.7 45-8.5 15.3-1.8 32.1-2.6 50.9-2.8 18.8-.3 39.6 0 57.9.8 18.3.7 34.2 1.9 55.1 4 21 2.1 47.1 5.1 64.1 7.7 8.5.3 17.2.4 25.9.2" class="colorStroke000 svgStroke"/><polyline fill="none" stroke="#000" points="75.9 283.6 79.1 283.9 63 303.4 62.9 299.5"/><path fill="none" stroke="#91cffa" d="M60.1 364.8c.4-2.3 28.6-3.5 84.5-3.6 0-3.6 0-7.2 0-10.9 0-37.5 30.4-68 68-68 37.5 0 68 30.4 68 68 0 4.2 0 8.5 0 12.7 97.9-1.1 195.8-2.3 293.7-3.4 5.4-.2 8.2-14.8-.5-15.7-46.5-5.5-93.5-8.1-140.4-7.5-47.7.6-95.4 4.4-142.6 11.3-.1 0-.2.1-.3.2-3.7 8.8-.9 10.7 20.3 11.4 21.3.7 61.3.2 90.6-.2 29.3-.5 47.9-.9 74.8-1.2 26.8-.3 61.8-.4 80.5-.5 18.7-.2 21.1-.5 22.7-6.3M223.2 238.3c.1 1.2 0 2.7-.7 3.6-1 1.4-3.2 1.5-5.3 1.6-16.6 1.2-29.1 5.1-42.7 8.4-12.5 3-25.9 5.3-39.1 8.8-12.4 3.2-24.6 7.4-35.4 13.6C86.5 282 75.4 292.7 64.7 304c2.3.5 4.7 1 7.1 1.3M49.5 360.4c1.3-.2 2.6-.3 3.9-.5 1-1.2 1.9-2.4 2.9-3.5 0-5.8 0-11.6 0-17.5-2.5.1-3.8-2.6-3.8-8.2M788.2 347.5c-3 0-5.9.1-8.9.1-1.6 1.4-3.2 3.6-3.1 5.5.2 2.1 2.3 4 4.2 5.2" class="colorStroke000 svgStroke"/><path fill="none" stroke="#91cffa" d="M265.2,376.2c3.6,0,7.2,0,10.9,0       c0-7.7,0-15.4,0-23.2c0-35-28.3-63.3-63.3-63.3c-35,0-63.3,28.3-63.3,63.3c0,5.5,0,11,0,16.5c0,0.8-0.3,1.2-1.1,1.2       c-3.1,0.3-3.9,1.2-4.8,1.8c-1,0.6-2.2,0.6-3,0.9c-0.8,0.3-1.1,0.8-12.9,1c-11.8,0.3-35,0.3-35.5-3.1c-29.4-6.4-32.9-6.6-36.4-7.5       c-3.5-0.9-6.9-2.4-6-4c0-13.4,0-26.8,0-40.2c1.6-3.7,5.6-8.9,11.9-15.7c0-3.5,2.8-7,7.1-12.1c4.4-5.1,10.3-12,14.3-15.1       c12-7.3,20.2-11.9,28.9-15.5c8.7-3.6,18-6.3,33.8-9.3c15.8-3,38.1-6.3,64.4-9.3" class="colorStroke000 svgStroke"/><path fill="none" stroke="#91cffa" d="M142.3 286.4c1-.6 2-1.3 2.9-1.9 6.5-4.2 13.4-7.9 20.7-10.7 13.2-5 27.4-6.7 41.7-7.7 11.8-.8 23.7-1.2 34.8 2 7.4 2.1 14.5 5.9 20.9 10.4M337.5 243.7c28.4-1.5 56.7-3 85.1-4.5 61.7-3.3 123.3-6.8 185-10.4 7.1-.5 11.7-1.3 14-2.6 3.2-1.7 6.4-3.5 9.6-5.2 5.5-3 11-5.9 15.3-10.3 3.3-3.3 5.9-7.4 7.7-11.9-7.6-3.6-15.5-6.8-23.5-9.4-17.8-5.7-36.4-8.4-55.1-10.7-29.9-3.7-59.8-6.5-89.7-5.7M292.2 246c.2 1.3.1 2.5-.3 3.6-1 2.6-4.3 4.1-5.6 6.7-.5 1-.7 2.3-.8 3.4.2 24.1.5 48.2.7 72.3.4 5.5.6 10.9.7 16.4 0 2.8 0 5.6 0 8.4" class="colorStroke000 svgStroke"/><path fill="none" stroke="#91cffa" d="M485.9 170.7c10.2-.3 20.5-.2 30.7.2 18.4.7 36.7 2.5 55 4.8 13.7 1.7 27.3 3.6 40.7 6.4 9.3 2 18.5 4.4 27.4 7.8 5.3 2 10.4 4.3 15.5 6.7 1.5.6 1.9 1.7 1.3 3.3-1.2 2.8-2.5 5.5-4.3 8-1.8 2.5-3.9 4.7-6.2 6.6-5.6 4.7-12.1 8.1-18.6 11.6-.2.1-.2.2-.2.4 5.9 22.2 7 26.5 7.4 31.7.4 5.4.1 11.6-.8 16.4-1 4.9-2.6 8.4-6.3 10.3-6.5 2.3-12.7 5.6-18.2 9.8-8.2 6.3-14.8 14.7-19.5 24-5.4 10.6-8.5 22.4-9.2 34.2M343.2 241.5c26.4-1.4 52.8-2.8 79.2-4.2 13.4-.7 26.8-1.4 40.1-2.2 4.2-19.7 8.3-39.5 12.5-59.2-10.3.6-20.5 1.5-30.7 2.8-25.8 3.4-51.3 9.4-76.1 17.3-18.8 6-37.3 13.2-55.1 21.9-16.6 8-32.5 17.3-47.9 27.5 18.2-.9 36.3-1.8 54.5-2.8M749.4 232.5c1.9-.6 3.8-1.2 5.7-1.7.6-.1 1.4-.1 1.9-.3.5-.2.8-.7 1.1-1.1.3-.4.7-.8.3-1.1-.3-.4-1.3-.8-1.3-1.1 0-.3 1.1-.6 1.5-1.1.4-.5.1-1.3-.1-1.9-.2-.6-.4-.9-.9-1.1-.5-.1-1.2 0-1.9 0-.7 0-1.4-.2-1.9 0-.5.2-.9.7-1.4 1-.5.4-1.1.7-1.7.6-.6-.1-1.2-.5-1.8-.7 2.2 2.4 4.3 4.8 6.5 7.2 6.3 4.5 11.7 10.7 14.9 17.8 1.9 4.3 3 8.9 3.3 13.6.3 5.2-.4 10.4-.9 15.6-.4 4-.6 8-1.2 12 3.2.8 6.5 1.5 9.7 2.3 3.1 2.2 4.4 5.8 5.3 8.7.8 3 1.2 5.4 1.5 12.9.3 7.4.5 19.9.4 27.1-.1 7.2-.6 9.1-2.3 11.5-1.7 2.4-4.7 5.2-18.1 15-14.6 1.2-29.2 2.4-46.4 2.6-4.5 0-9 0-13.5 0" class="colorStroke000 svgStroke"/><path fill="none" stroke="#91cffa" d="M703.5,169.2c-2.7,1.6-5.1,3.7-7.3,6.1       c-1.7,2-3.3,4.1-4.1,6.6c-0.3,0.9-0.5,1.9-0.5,2.9c0,2.9,1.6,5.7,3.5,8.1c2.9,3.6,6.6,6,10.3,8.6c5.6,3.8,11.1,7.8,16.5,11.9       c6,4.5,11.8,9.3,17.4,14.2c2.1,0.2,4.3-0.1,6.3-1.1c1.2-0.6,2.4-1.4,3.3-2.4c-3.8-5.8-8.1-11.3-12.9-16.4       c-10.2-10.9-22.6-19.8-36-26.3c0.6-1.1,1.3-2.1,2-3.1c1.3-1.9,2.8-3.8,4.4-5.5c0.3-0.3,0.6-0.8,0.5-1.3c0-0.3-0.2-0.6-0.4-0.9       c-1.1-0.8-2.4-1.3-3.8-1.5c-33.8-1.6-47.2-3-55.2-3.8c-8-0.8-10.6-1.1-14.7-1.5c-4.2-0.5-9.9-1.2-21.4-2.2       c-11.5-1-28.7-2.4-44.3-3.2c-15.6-0.8-29.5-1.2-46.3-1.1c-16.8,0.1-36.5,0.6-53.5,1.4c-17,0.8-31.3,1.9-43.4,3.3       c-12.1,1.4-22.1,3-31,4.9c-9,2-16.9,4.2-38.2,12.2c-21.3,8-55.9,21.7-124.4,59.3" class="colorStroke000 svgStroke"/></svg></svg>